<svg width="12" height="10" viewBox="0 0 12 10" fill="none" xmlns="http://www.w3.org/2000/svg">
<g clip-path="url(#clip0_1_195)">
<path d="M4.08735 3.383L5.98448 9.75032L7.91111 3.383H4.08735Z" fill="#98D7FD" style="fill:#98D7FD;fill:color(display-p3 0.5961 0.8431 0.9922);fill-opacity:1;"/>
<path d="M7.91111 3.38301L5.98448 0.260132L4.08735 3.38301H7.91111Z" fill="#D2F1F9" style="fill:#D2F1F9;fill:color(display-p3 0.8235 0.9451 0.9765);fill-opacity:1;"/>
<path d="M9.28336 0.260132H5.98448L7.91111 3.38301L9.28336 0.260132Z" fill="#6AC3F0" style="fill:#6AC3F0;fill:color(display-p3 0.4157 0.7647 0.9412);fill-opacity:1;"/>
<path d="M5.98448 9.75032L11.6083 3.383H7.91111L5.98448 9.75032Z" fill="#40A6DD" style="fill:#40A6DD;fill:color(display-p3 0.2510 0.6510 0.8667);fill-opacity:1;"/>
<path d="M7.91111 3.38301H11.6083L9.28336 0.260132L7.91111 3.38301Z" fill="#93D5EF" style="fill:#93D5EF;fill:color(display-p3 0.5765 0.8353 0.9373);fill-opacity:1;"/>
<path d="M5.98448 0.260132H2.6856L4.08735 3.38301L5.98448 0.260132Z" fill="#83D0FE" style="fill:#83D0FE;fill:color(display-p3 0.5137 0.8157 0.9961);fill-opacity:1;"/>
<path d="M0.360611 3.383L5.98448 9.75032L4.08735 3.383H0.360611Z" fill="#61C4F7" style="fill:#61C4F7;fill:color(display-p3 0.3804 0.7686 0.9686);fill-opacity:1;"/>
<path d="M2.6856 0.260132L0.360611 3.38301H4.08735L2.6856 0.260132Z" fill="#B9E4FC" style="fill:#B9E4FC;fill:color(display-p3 0.7255 0.8941 0.9882);fill-opacity:1;"/>
</g>
<defs>
<clipPath id="clip0_1_195">
<rect width="11.2476" height="9.4902" fill="white" style="fill:white;fill-opacity:1;" transform="translate(0.360611 0.260132)"/>
</clipPath>
</defs>
</svg>
